<svg width="145" height="145" viewBox="0 0 145 145" fill="none" xmlns="http://www.w3.org/2000/svg">
<path d="M72.892 141.409C111.066 141.409 142.012 110.463 142.012 72.2894C142.012 34.1155 111.066 3.16943 72.892 3.16943C34.7181 3.16943 3.77197 34.1155 3.77197 72.2894C3.77197 110.463 34.7181 141.409 72.892 141.409Z" fill="#EA4C89"/>
<path fill-rule="evenodd" clip-rule="evenodd" d="M72.8921 0.289551C33.1438 0.289551 0.89209 32.5413 0.89209 72.2896C0.89209 112.038 33.1438 144.29 72.8921 144.29C112.562 144.29 144.892 112.038 144.892 72.2896C144.892 32.5413 112.562 0.289551 72.8921 0.289551ZM120.449 33.4783C129.039 43.9425 134.194 57.2962 134.35 71.743C132.319 71.3525 112.016 67.2137 91.5559 69.7906C91.0874 68.7756 90.6968 67.6822 90.2284 66.5889C88.9789 63.6215 87.5732 60.5759 86.1676 57.6866C108.814 48.4719 119.122 35.1964 120.449 33.4783ZM72.8921 10.91C88.5103 10.91 102.801 16.7668 113.656 26.372C112.562 27.9339 103.269 40.3504 81.4041 48.5499C71.3303 30.0422 60.1632 14.8926 58.4453 12.5499C63.0526 11.4566 67.8943 10.91 72.8921 10.91ZM46.7316 16.6888C48.3715 18.8752 59.3043 34.1031 69.5342 52.2201C40.7967 59.8731 15.4171 59.7169 12.6839 59.7169C16.6664 40.6626 29.5516 24.8102 46.7316 16.6888ZM11.3563 72.3676C11.3563 71.743 11.3563 71.1183 11.3563 70.4935C14.0114 70.5715 43.8423 70.9621 74.532 61.7474C76.3281 65.1833 77.968 68.6973 79.5298 72.2115C78.7489 72.4457 77.8899 72.6801 77.109 72.9143C45.4041 83.1443 28.5364 111.101 27.1308 113.444C17.3693 102.589 11.3563 88.1421 11.3563 72.3676ZM72.8921 133.826C58.6796 133.826 45.5602 128.984 35.174 120.863C36.2674 118.598 48.762 94.5455 83.4343 82.4415C83.5906 82.3634 83.6686 82.3633 83.8249 82.2851C92.493 104.698 96.0071 123.518 96.9441 128.906C89.5255 132.108 81.4041 133.826 72.8921 133.826ZM107.174 123.284C106.549 119.535 103.27 101.574 95.2262 79.474C114.515 76.4285 131.382 81.4263 133.491 82.1291C130.836 99.231 120.996 113.991 107.174 123.284Z" fill="#C32361"/>
</svg>
