<svg width="145" height="145" viewBox="0 0 145 145" fill="none" xmlns="http://www.w3.org/2000/svg">
<path fill-rule="evenodd" clip-rule="evenodd" d="M144.027 72.4167C144.027 32.6553 111.788 0.416748 72.0269 0.416748C32.2655 0.416748 0.0268555 32.6553 0.0268555 72.4167C0.0268555 108.351 26.3526 138.139 60.778 143.547V93.2342H42.4918V72.4167H60.778V56.5504C60.778 38.5072 71.5308 28.534 87.974 28.534C95.8512 28.534 104.093 29.9413 104.093 29.9413V47.6606H95.0108C86.0706 47.6606 83.2758 53.2092 83.2758 58.9095V72.4161H103.242L100.053 93.2337H83.2752V143.546C117.701 138.149 144.026 108.361 144.026 72.4161L144.027 72.4167Z" fill="#1977F3"/>
<path fill-rule="evenodd" clip-rule="evenodd" d="M100.053 93.2336L103.243 72.4161H83.2762V58.9095C83.2762 53.2192 86.0605 47.6606 95.0112 47.6606H104.094V29.9413C104.094 29.9413 95.8522 28.5339 87.9744 28.5339C71.5313 28.5339 60.7785 38.4973 60.7785 56.5504V72.4167H42.4922V93.2342H60.7785V143.547C64.4436 144.123 68.2 144.417 72.0274 144.417C75.8547 144.417 79.6111 144.113 83.2762 143.547V93.2342H100.054L100.053 93.2336Z" fill="#FEFEFE"/>
</svg>
