<svg width="143" height="143" viewBox="0 0 143 143" fill="none" xmlns="http://www.w3.org/2000/svg">
<path d="M121.69 121.689H100.528V88.5488C100.528 80.6463 100.387 70.4733 89.5222 70.4733C78.5006 70.4733 76.8142 79.0834 76.8142 87.9734V121.687H55.6526V53.5374H75.9677V62.8507H76.2521C78.2852 59.3746 81.223 56.5149 84.7527 54.5764C88.2824 52.6378 92.2719 51.6929 96.2961 51.8423C117.744 51.8423 121.699 65.95 121.699 84.3032L121.69 121.689ZM31.7754 44.2219C29.3466 44.2224 26.9721 43.5026 24.9524 42.1535C22.9326 40.8045 21.3584 38.8869 20.4285 36.6431C19.4987 34.3993 19.255 31.9302 19.7284 29.548C20.2018 27.1658 21.371 24.9774 23.0882 23.2597C24.8053 21.5419 26.9932 20.372 29.3753 19.8977C31.7574 19.4234 34.2265 19.6662 36.4706 20.5952C38.7147 21.5243 40.6329 23.0979 41.9826 25.1172C43.3324 27.1364 44.0531 29.5106 44.0535 31.9394C44.0538 33.5521 43.7364 35.149 43.1195 36.639C42.5026 38.1291 41.5984 39.483 40.4583 40.6235C39.3182 41.7641 37.9645 42.6689 36.4746 43.2863C34.9848 43.9037 33.3881 44.2216 31.7754 44.2219ZM42.3561 121.689H21.1726V53.5374H42.3561V121.689ZM132.24 0.00973027H10.5389C7.77665 -0.0214419 5.11487 1.04531 3.13873 2.97558C1.16258 4.90585 0.033712 7.5417 0 10.3039V132.51C0.0325582 135.274 1.16076 137.911 3.13684 139.844C5.11292 141.776 7.77528 142.845 10.5389 142.815H132.24C135.009 142.85 137.679 141.784 139.663 139.852C141.646 137.92 142.782 135.279 142.821 132.51V10.2951C142.781 7.52741 141.644 4.88855 139.661 2.95833C137.677 1.02811 135.008 -0.0355935 132.24 0.000909392" fill="#0A66C2"/>
</svg>
