<svg width="97" height="145" viewBox="0 0 97 145" fill="none" xmlns="http://www.w3.org/2000/svg">
<path d="M48.6438 72.8972C48.6438 66.532 51.1724 60.4275 55.6732 55.9266C60.1741 51.4258 66.2786 48.8972 72.6438 48.8972C79.009 48.8972 85.1135 51.4258 89.6144 55.9266C94.1152 60.4275 96.6438 66.532 96.6438 72.8972C96.6438 79.2624 94.1152 85.3669 89.6144 89.8678C85.1135 94.3686 79.009 96.8972 72.6438 96.8972C66.2786 96.8972 60.1741 94.3686 55.6732 89.8678C51.1724 85.3669 48.6438 79.2624 48.6438 72.8972Z" fill="#1ABCFE"/>
<path d="M0.643799 120.897C0.643799 114.532 3.17236 108.427 7.67324 103.926C12.1741 99.4258 18.2786 96.8972 24.6438 96.8972H48.6438V120.897C48.6438 127.262 46.1152 133.367 41.6144 137.868C37.1135 142.368 31.009 144.897 24.6438 144.897C18.2786 144.897 12.1741 142.368 7.67324 137.868C3.17236 133.367 0.643799 127.262 0.643799 120.897Z" fill="#0ACF83"/>
<path d="M48.6438 0.897217V48.8972H72.6438C79.009 48.8972 85.1135 46.3686 89.6144 41.8678C94.1152 37.3669 96.6438 31.2624 96.6438 24.8972C96.6438 18.532 94.1152 12.4275 89.6144 7.92666C85.1135 3.42578 79.009 0.897217 72.6438 0.897217H48.6438Z" fill="#FF7262"/>
<path d="M0.643799 24.8972C0.643799 31.2624 3.17236 37.3669 7.67324 41.8678C12.1741 46.3686 18.2786 48.8972 24.6438 48.8972H48.6438V0.897217H24.6438C18.2786 0.897217 12.1741 3.42578 7.67324 7.92666C3.17236 12.4275 0.643799 18.532 0.643799 24.8972Z" fill="#F24E1E"/>
<path d="M0.643799 72.8972C0.643799 79.2624 3.17236 85.3669 7.67324 89.8678C12.1741 94.3686 18.2786 96.8972 24.6438 96.8972H48.6438V48.8972H24.6438C18.2786 48.8972 12.1741 51.4258 7.67324 55.9266C3.17236 60.4275 0.643799 66.532 0.643799 72.8972Z" fill="#A259FF"/>
</svg>
