<svg width="149" height="145" viewBox="0 0 149 145" fill="none" xmlns="http://www.w3.org/2000/svg">
<path fill-rule="evenodd" clip-rule="evenodd" d="M74.258 0.77002C33.4921 0.77002 0.435059 33.8208 0.435059 74.5928C0.435059 107.21 21.5876 134.882 50.9197 144.643C54.6091 145.326 55.9636 143.042 55.9636 141.092C55.9636 139.331 55.8952 133.516 55.8634 127.348C35.3258 131.813 30.9921 118.637 30.9921 118.637C27.634 110.105 22.7954 107.836 22.7954 107.836C16.0975 103.254 23.3003 103.348 23.3003 103.348C30.7134 103.867 34.6167 110.957 34.6167 110.957C41.201 122.241 51.8867 118.978 56.0993 117.092C56.7619 112.321 58.675 109.063 60.7863 107.221C44.3892 105.354 27.1523 99.024 27.1523 70.7371C27.1523 62.6774 30.0361 56.0919 34.7585 50.9221C33.9921 49.0615 31.4652 41.5542 35.4737 31.3857C35.4737 31.3857 41.6729 29.4016 55.7802 38.9528C61.6689 37.3171 67.9842 36.4968 74.258 36.4687C80.5317 36.4968 86.8519 37.3171 92.7516 38.9528C106.842 29.4016 113.032 31.3857 113.032 31.3857C117.051 41.5542 114.523 49.0615 113.756 50.9221C118.489 56.0919 121.354 62.6774 121.354 70.7371C121.354 99.0912 104.084 105.334 87.6453 107.162C90.2932 109.453 92.6525 113.946 92.6525 120.833C92.6525 130.711 92.567 138.66 92.567 141.092C92.567 143.056 93.8958 145.358 97.6378 144.633C126.954 134.861 148.079 107.199 148.079 74.5928C148.079 33.8208 115.027 0.77002 74.258 0.77002Z" fill="#1B1817"/>
<path d="M28.3956 106.763C28.233 107.131 27.656 107.24 27.1303 106.988C26.5949 106.748 26.2941 106.248 26.4677 105.88C26.6266 105.503 27.2049 105.398 27.7391 105.649C28.2758 105.891 28.5814 106.396 28.3956 106.763Z" fill="#1B1817"/>
<path d="M31.3857 110.098C31.0337 110.425 30.3454 110.273 29.8784 109.757C29.3956 109.243 29.3051 108.554 29.6621 108.223C30.0251 107.898 30.6926 108.051 31.1767 108.564C31.6596 109.085 31.7537 109.768 31.3857 110.098Z" fill="#1B1817"/>
<path d="M34.2965 114.35C33.8442 114.664 33.1046 114.37 32.6474 113.713C32.195 113.057 32.1951 112.269 32.6572 111.954C33.1156 111.639 33.8442 111.923 34.3075 112.574C34.7586 113.241 34.7586 114.029 34.2965 114.35Z" fill="#1B1817"/>
<path d="M38.284 118.458C37.8794 118.904 37.0175 118.784 36.3867 118.175C35.7413 117.58 35.5616 116.735 35.9674 116.289C36.3769 115.842 37.2437 115.968 37.8794 116.571C38.5199 117.166 38.7155 118.016 38.284 118.458Z" fill="#1B1817"/>
<path d="M43.785 120.843C43.6065 121.421 42.7764 121.684 41.9402 121.438C41.1053 121.185 40.5588 120.508 40.7276 119.923C40.9011 119.341 41.7349 119.068 42.5771 119.33C43.4109 119.582 43.9586 120.255 43.785 120.843Z" fill="#1B1817"/>
<path d="M49.8268 121.285C49.8476 121.894 49.1385 122.399 48.2608 122.41C47.3782 122.429 46.6642 121.937 46.6545 121.338C46.6545 120.723 47.3476 120.223 48.2302 120.208C49.108 120.191 49.8268 120.68 49.8268 121.285Z" fill="#1B1817"/>
<path d="M55.4487 120.328C55.5538 120.922 54.9438 121.532 54.0722 121.695C53.2152 121.851 52.4219 121.485 52.3131 120.895C52.2067 120.286 52.8277 119.676 53.6835 119.519C54.5563 119.367 55.3375 119.724 55.4487 120.328Z" fill="#1B1817"/>
</svg>
